<svg xmlns="http://www.w3.org/2000/svg" xmlns:xlink="http://www.w3.org/1999/xlink" viewBox="0 0 919 231"><defs><style>.cls-1,.cls-5{fill:#2b3d4f;}.cls-2{fill:#f04e4b;}.cls-3{fill:#fdcc49;}.cls-4{fill:#6bb74d;}.cls-5{stroke:#0362cf;stroke-linecap:round;stroke-miterlimit:10;stroke-width:14px;}.cls-6{fill:#79bd57;}.cls-7{fill:#c9c9c9;}.cls-8{fill:#206ed3;}.cls-9{fill:#223446;}.cls-10{fill:url(#linear-gradient);}.cls-11{fill:url(#linear-gradient-2);}</style><linearGradient id="linear-gradient" x1="790" y1="225.47" x2="790" y2="42.47" gradientUnits="userSpaceOnUse"><stop offset="0" stop-color="#035fcd"/><stop offset="1" stop-color="#1f7cec"/></linearGradient><linearGradient id="linear-gradient-2" x1="902.13" y1="221.47" x2="902.13" y2="42.47" xlink:href="#linear-gradient"/></defs><title>Asset 1</title><g id="Layer_2" data-name="Layer 2"><g id="Layer_1-2" data-name="Layer 1"><path class="cls-1" d="M19,67V195.78A16.22,16.22,0,0,0,35.22,212H263.48A56.86,56.86,0,0,1,221,231H36A36,36,0,0,1,0,195V36A36,36,0,0,1,36,0H242a36,36,0,0,1,36,36V67Z"/><circle class="cls-2" cx="41" cy="34" r="13"/><circle class="cls-3" cx="77" cy="34" r="13"/><circle class="cls-4" cx="113" cy="34" r="13"/><line class="cls-5" x1="92" y1="177" x2="114" y2="101"/><line class="cls-5" x1="168" y1="140" x2="132" y2="118"/><line class="cls-5" x1="168.26" y1="140.37" x2="132.26" y2="162.37"/><line class="cls-5" x1="39.39" y1="137.19" x2="75.39" y2="115.19"/><line class="cls-5" x1="39.13" y1="137.56" x2="75.13" y2="159.56"/><rect class="cls-6" x="188" y="99" width="91" height="22" rx="4"/><rect class="cls-7" x="188" y="138" width="91" height="22" rx="4"/><path class="cls-8" d="M277.93,177a57,57,0,0,1-5.69,22H139a4,4,0,0,1-4-4V181a4,4,0,0,1,4-4Z"/><path class="cls-9" d="M395,224.44a71.78,71.78,0,0,1-28.63-5.75,63.87,63.87,0,0,1-23.25-17.12,75.16,75.16,0,0,1-14.87-27.88L360,161.19a49.19,49.19,0,0,0,12.25,22.25q8.75,9,23,9a37.09,37.09,0,0,0,13.25-2.37,23.6,23.6,0,0,0,10.12-7.13,18,18,0,0,0,3.88-11.75,20.5,20.5,0,0,0-3.25-11.62q-3.25-4.87-10.88-9.25a137.34,137.34,0,0,0-20.62-9.13l-11-4a109.12,109.12,0,0,1-14.63-6.87,61.4,61.4,0,0,1-13.5-10.25,49.61,49.61,0,0,1-9.87-14.13A42.49,42.49,0,0,1,335,87.69a46.16,46.16,0,0,1,7.25-25.37,51.52,51.52,0,0,1,20.25-18.13q13-6.75,30.25-6.75,18,0,29.75,6.13T440.9,58.44a60.17,60.17,0,0,1,9.38,17l-29.75,12.5a29.11,29.11,0,0,0-5-9.5,26,26,0,0,0-9-7.25,29.43,29.43,0,0,0-13.25-2.75,33.62,33.62,0,0,0-13,2.38,21.58,21.58,0,0,0-9,6.5A15.08,15.08,0,0,0,368,86.94q0,8,6.87,13.75T397,111.44l11.25,3.75a140.78,140.78,0,0,1,18.12,7.63,63.2,63.2,0,0,1,15.38,10.87,47.12,47.12,0,0,1,10.62,15.5q3.87,9,3.88,21.5,0,13.76-5.5,24a48.69,48.69,0,0,1-14.5,16.75,65.64,65.64,0,0,1-19.88,9.75A74.26,74.26,0,0,1,395,224.44Z"/><path class="cls-9" d="M453.78,120.94v-28h23.5v28Zm64.5,101.5q-19.75,0-31-11.37T476,179.69V56.94h32.75V173.69q0,9.26,3.75,13.63t12.25,4.37a24.43,24.43,0,0,0,7.5-1.12,42.21,42.21,0,0,0,8.75-4.38v32a75.68,75.68,0,0,1-11.13,3.13A59.09,59.09,0,0,1,518.28,222.44Zm-10.75-101.5v-28H540v28Z"/><path class="cls-9" d="M603,224.44a58.87,58.87,0,0,1-31.5-8.62,61.16,61.16,0,0,1-22.12-23.88q-8.13-15.24-8.13-35.25t8.13-35.25a61.2,61.2,0,0,1,22.12-23.87A58.88,58.88,0,0,1,603,88.94a48.44,48.44,0,0,1,16.75,2.75,44.61,44.61,0,0,1,13,7.25,37.16,37.16,0,0,1,8.5,9.5h2l-2-18v-49h32.5v179h-30.5V205.19h-2a35.36,35.36,0,0,1-8.5,9.38,46.28,46.28,0,0,1-13,7.12A48.44,48.44,0,0,1,603,224.44Zm5.5-30.25a32.53,32.53,0,0,0,17.13-4.75,36.33,36.33,0,0,0,12.75-13.12,38.35,38.35,0,0,0,4.87-19.63,38.28,38.28,0,0,0-4.87-19.62,35.28,35.28,0,0,0-12.75-13,33.17,33.17,0,0,0-17.13-4.63,32.69,32.69,0,0,0-16.87,4.63,35.6,35.6,0,0,0-12.75,12.87Q574,145.19,574,156.69a39,39,0,0,0,4.88,19.75,35.14,35.14,0,0,0,12.75,13.13A32.78,32.78,0,0,0,608.52,194.19Z"/><path class="cls-10" d="M790,225.47q-21,0-36.62-9a61.22,61.22,0,0,1-24.25-25.88q-8.62-16.87-8.63-40.37V42.47H754V152.22a53.27,53.27,0,0,0,4,21.12,32.54,32.54,0,0,0,12.13,14.75q8.11,5.39,19.87,5.38,12,0,20-5.38a32.85,32.85,0,0,0,12-14.75,53.27,53.27,0,0,0,4-21.12V42.47h33.5V150.22q0,22.25-8.5,39.25A63.89,63.89,0,0,1,827,216Q811.5,225.47,790,225.47Z"/><path class="cls-11" d="M885.25,221.47v-179H919v179Z"/></g></g></svg>